<svg width="327" height="265" viewBox="0 0 327 265" fill="none" xmlns="http://www.w3.org/2000/svg">
<path d="M52.5052 176.459C51.2564 178.649 48.9486 179.999 46.4511 179.999H20.5011C15.1197 179.999 11.7563 174.1 14.447 169.381L109.005 3.53932C110.254 1.34918 112.561 0 115.059 0H141.008C146.39 0 149.753 5.89891 147.062 10.618L52.5052 176.459Z" fill="url(#paint0_linear_119_13)"/>
<path d="M229.949 180L229.947 179.996L196.936 179.965C194.441 179.963 192.136 178.615 190.889 176.427L168.348 136.897H97.8273C92.455 136.897 89.0906 131.016 91.763 126.297L104.65 103.54C105.896 101.34 108.21 99.9825 110.715 99.9825H147.3L128.733 67.4225C127.485 65.2323 127.485 62.534 128.734 60.3438L137.21 45.4774L137.21 45.4772L161.122 3.53929C162.371 1.34917 164.678 0 167.176 0H306.509C310.37 0 313.5 3.16923 313.5 7.07868V29.8355C313.5 33.745 310.37 36.9142 306.509 36.9142H168.27C166.721 36.9142 165.185 36.9725 163.664 37.0871C158.984 37.4397 156.719 42.6789 159.066 46.7946L213.968 143.086H277.045V108.457H240.977C238.479 108.457 236.171 107.108 234.923 104.918L221.947 82.1607C219.257 77.4416 222.62 71.5427 228.001 71.5427H306.509C310.37 71.5427 313.5 74.7119 313.5 78.6214V172.921C313.5 176.831 310.37 180 306.509 180H229.949Z" fill="url(#paint1_linear_119_13)"/>
<path d="M2.8 231V203H16.04C19.1333 203 21.8533 203.573 24.2 204.72C26.5467 205.867 28.3733 207.48 29.68 209.56C31.0133 211.64 31.68 214.12 31.68 217C31.68 219.853 31.0133 222.333 29.68 224.44C28.3733 226.52 26.5467 228.133 24.2 229.28C21.8533 230.427 19.1333 231 16.04 231H2.8ZM10.72 224.68H15.72C17.32 224.68 18.7067 224.387 19.88 223.8C21.08 223.187 22.0133 222.307 22.68 221.16C23.3467 219.987 23.68 218.6 23.68 217C23.68 215.373 23.3467 213.987 22.68 212.84C22.0133 211.693 21.08 210.827 19.88 210.24C18.7067 209.627 17.32 209.32 15.72 209.32H10.72V224.68ZM43.1269 213.84H56.1269V219.76H43.1269V213.84ZM43.6869 224.88H58.3269V231H35.8469V203H57.8069V209.12H43.6869V224.88ZM70.9313 231L58.9712 203H67.5313L77.6113 227.24H72.5713L82.8913 203H90.7313L78.7313 231H70.9313ZM99.6503 213.84H112.65V219.76H99.6503V213.84ZM100.21 224.88H114.85V231H92.3703V203H114.33V209.12H100.21V224.88ZM119.245 231V203H127.165V224.72H140.525V231H119.245ZM157.35 231.56C155.11 231.56 153.043 231.2 151.15 230.48C149.256 229.76 147.603 228.747 146.19 227.44C144.803 226.107 143.723 224.56 142.95 222.8C142.176 221.04 141.79 219.107 141.79 217C141.79 214.893 142.176 212.96 142.95 211.2C143.723 209.44 144.803 207.907 146.19 206.6C147.603 205.267 149.256 204.24 151.15 203.52C153.043 202.8 155.11 202.44 157.35 202.44C159.616 202.44 161.683 202.8 163.55 203.52C165.443 204.24 167.083 205.267 168.47 206.6C169.856 207.907 170.936 209.44 171.71 211.2C172.51 212.96 172.91 214.893 172.91 217C172.91 219.107 172.51 221.053 171.71 222.84C170.936 224.6 169.856 226.133 168.47 227.44C167.083 228.747 165.443 229.76 163.55 230.48C161.683 231.2 159.616 231.56 157.35 231.56ZM157.35 225C158.416 225 159.403 224.813 160.31 224.44C161.243 224.067 162.043 223.533 162.71 222.84C163.403 222.12 163.936 221.267 164.31 220.28C164.71 219.293 164.91 218.2 164.91 217C164.91 215.773 164.71 214.68 164.31 213.72C163.936 212.733 163.403 211.893 162.71 211.2C162.043 210.48 161.243 209.933 160.31 209.56C159.403 209.187 158.416 209 157.35 209C156.283 209 155.283 209.187 154.35 209.56C153.443 209.933 152.643 210.48 151.95 211.2C151.283 211.893 150.75 212.733 150.35 213.72C149.976 214.68 149.79 215.773 149.79 217C149.79 218.2 149.976 219.293 150.35 220.28C150.75 221.267 151.283 222.12 151.95 222.84C152.643 223.533 153.443 224.067 154.35 224.44C155.283 224.813 156.283 225 157.35 225ZM177.058 231V203H189.858C192.418 203 194.618 203.413 196.458 204.24C198.324 205.067 199.764 206.267 200.778 207.84C201.791 209.387 202.298 211.227 202.298 213.36C202.298 215.467 201.791 217.293 200.778 218.84C199.764 220.387 198.324 221.587 196.458 222.44C194.618 223.267 192.418 223.68 189.858 223.68H181.458L184.978 220.24V231H177.058ZM184.978 221.08L181.458 217.44H189.378C191.031 217.44 192.258 217.08 193.058 216.36C193.884 215.64 194.298 214.64 194.298 213.36C194.298 212.053 193.884 211.04 193.058 210.32C192.258 209.6 191.031 209.24 189.378 209.24H181.458L184.978 205.6V221.08ZM206.159 231V203H212.679L224.279 222.04H220.839L232.119 203H238.639L238.719 231H231.439L231.359 214.08H232.599L224.159 228.24H220.639L211.959 214.08H213.479V231H206.159ZM251.603 213.84H264.603V219.76H251.603V213.84ZM252.163 224.88H266.803V231H244.323V203H266.283V209.12H252.163V224.88ZM271.198 231V203H277.718L293.158 221.64H290.078V203H297.838V231H291.318L275.878 212.36H278.958V231H271.198ZM309.385 231V209.28H300.785V203H325.865V209.28H317.305V231H309.385Z" fill="url(#paint2_linear_119_13)"/>
<path d="M35.66 260V246H42.5C44.26 246 45.58 246.333 46.46 247C47.3533 247.667 47.8 248.547 47.8 249.64C47.8 250.373 47.62 251.013 47.26 251.56C46.9 252.093 46.4067 252.507 45.78 252.8C45.1533 253.093 44.4333 253.24 43.62 253.24L44 252.42C44.88 252.42 45.66 252.567 46.34 252.86C47.02 253.14 47.5467 253.56 47.92 254.12C48.3067 254.68 48.5 255.367 48.5 256.18C48.5 257.38 48.0267 258.32 47.08 259C46.1333 259.667 44.74 260 42.9 260H35.66ZM38.88 257.56H42.66C43.5 257.56 44.1333 257.427 44.56 257.16C45 256.88 45.22 256.44 45.22 255.84C45.22 255.253 45 254.82 44.56 254.54C44.1333 254.247 43.5 254.1 42.66 254.1H38.64V251.74H42.1C42.8867 251.74 43.4867 251.607 43.9 251.34C44.3267 251.06 44.54 250.64 44.54 250.08C44.54 249.533 44.3267 249.127 43.9 248.86C43.4867 248.58 42.8867 248.44 42.1 248.44H38.88V257.56ZM65.933 251.64H72.673V254.16H65.933V251.64ZM66.173 257.4H73.793V260H62.953V246H73.533V248.6H66.173V257.4ZM112.835 260.24C111.728 260.24 110.702 260.06 109.755 259.7C108.822 259.34 108.008 258.833 107.315 258.18C106.635 257.527 106.102 256.76 105.715 255.88C105.342 255 105.155 254.04 105.155 253C105.155 251.96 105.342 251 105.715 250.12C106.102 249.24 106.642 248.473 107.335 247.82C108.028 247.167 108.842 246.66 109.775 246.3C110.708 245.94 111.722 245.76 112.815 245.76C113.922 245.76 114.935 245.94 115.855 246.3C116.788 246.66 117.595 247.167 118.275 247.82C118.968 248.473 119.508 249.24 119.895 250.12C120.282 250.987 120.475 251.947 120.475 253C120.475 254.04 120.282 255.007 119.895 255.9C119.508 256.78 118.968 257.547 118.275 258.2C117.595 258.84 116.788 259.34 115.855 259.7C114.935 260.06 113.928 260.24 112.835 260.24ZM112.815 257.48C113.442 257.48 114.015 257.373 114.535 257.16C115.068 256.947 115.535 256.64 115.935 256.24C116.335 255.84 116.642 255.367 116.855 254.82C117.082 254.273 117.195 253.667 117.195 253C117.195 252.333 117.082 251.727 116.855 251.18C116.642 250.633 116.335 250.16 115.935 249.76C115.548 249.36 115.088 249.053 114.555 248.84C114.022 248.627 113.442 248.52 112.815 248.52C112.188 248.52 111.608 248.627 111.075 248.84C110.555 249.053 110.095 249.36 109.695 249.76C109.295 250.16 108.982 250.633 108.755 251.18C108.542 251.727 108.435 252.333 108.435 253C108.435 253.653 108.542 254.26 108.755 254.82C108.982 255.367 109.288 255.84 109.675 256.24C110.075 256.64 110.542 256.947 111.075 257.16C111.608 257.373 112.188 257.48 112.815 257.48ZM134.91 260V246H140.97C142.223 246 143.303 246.207 144.21 246.62C145.117 247.02 145.817 247.6 146.31 248.36C146.803 249.12 147.05 250.027 147.05 251.08C147.05 252.12 146.803 253.02 146.31 253.78C145.817 254.527 145.117 255.1 144.21 255.5C143.303 255.9 142.223 256.1 140.97 256.1H136.71L138.15 254.68V260H134.91ZM143.81 260L140.31 254.92H143.77L147.31 260H143.81ZM138.15 255.04L136.71 253.52H140.79C141.79 253.52 142.537 253.307 143.03 252.88C143.523 252.44 143.77 251.84 143.77 251.08C143.77 250.307 143.523 249.707 143.03 249.28C142.537 248.853 141.79 248.64 140.79 248.64H136.71L138.15 247.1V255.04ZM161.617 260V246H164.857V260H161.617ZM186.94 260.24C185.833 260.24 184.813 260.067 183.88 259.72C182.96 259.36 182.153 258.853 181.46 258.2C180.78 257.547 180.246 256.78 179.86 255.9C179.486 255.02 179.3 254.053 179.3 253C179.3 251.947 179.486 250.98 179.86 250.1C180.246 249.22 180.786 248.453 181.48 247.8C182.173 247.147 182.986 246.647 183.92 246.3C184.853 245.94 185.88 245.76 187 245.76C188.24 245.76 189.353 245.967 190.34 246.38C191.34 246.793 192.18 247.393 192.86 248.18L190.78 250.1C190.273 249.567 189.72 249.173 189.12 248.92C188.52 248.653 187.866 248.52 187.16 248.52C186.48 248.52 185.86 248.627 185.3 248.84C184.74 249.053 184.253 249.36 183.84 249.76C183.44 250.16 183.126 250.633 182.9 251.18C182.686 251.727 182.58 252.333 182.58 253C182.58 253.653 182.686 254.253 182.9 254.8C183.126 255.347 183.44 255.827 183.84 256.24C184.253 256.64 184.733 256.947 185.28 257.16C185.84 257.373 186.453 257.48 187.12 257.48C187.76 257.48 188.38 257.38 188.98 257.18C189.593 256.967 190.186 256.613 190.76 256.12L192.6 258.46C191.84 259.033 190.953 259.473 189.94 259.78C188.94 260.087 187.94 260.24 186.94 260.24ZM189.64 258.04V252.78H192.6V258.46L189.64 258.04ZM207.609 260V246H210.849V260H207.609ZM226.172 260V246H228.852L237.112 256.08H235.812V246H239.012V260H236.352L228.072 249.92H229.372V260H226.172ZM252.484 260L258.724 246H261.924L268.184 260H264.784L259.664 247.64H260.944L255.804 260H252.484ZM255.604 257L256.464 254.54H263.664L264.544 257H255.604ZM281.637 260V246H284.877V257.36H291.897V260H281.637Z" fill="url(#paint3_linear_119_13)"/>
<defs>
<linearGradient id="paint0_linear_119_13" x1="13.5" y1="0" x2="172.324" y2="264.706" gradientUnits="userSpaceOnUse">
<stop stop-color="#F07167"/>
<stop offset="1" stop-color="#FED9B7"/>
</linearGradient>
<linearGradient id="paint1_linear_119_13" x1="13.5" y1="0" x2="172.324" y2="264.706" gradientUnits="userSpaceOnUse">
<stop stop-color="#F07167"/>
<stop offset="1" stop-color="#FED9B7"/>
</linearGradient>
<linearGradient id="paint2_linear_119_13" x1="0" y1="192" x2="14.3625" y2="287.848" gradientUnits="userSpaceOnUse">
<stop stop-color="#F07167"/>
<stop offset="1" stop-color="#FED9B7"/>
</linearGradient>
<linearGradient id="paint3_linear_119_13" x1="34" y1="241" x2="38.41" y2="288.591" gradientUnits="userSpaceOnUse">
<stop stop-color="#F07167"/>
<stop offset="1" stop-color="#FED9B7"/>
</linearGradient>
</defs>
</svg>
